<svg width="144" height="147" viewBox="0 0 144 147" fill="none" xmlns="http://www.w3.org/2000/svg">
<ellipse cx="72" cy="73.5" rx="72" ry="73.5" fill="#F4F4F4"/>
<path d="M132.642 87.1375C125.439 87.574 107.722 105.187 107.722 105.187C100.834 112.074 95.0135 107.029 95.0135 107.029C89.7748 104.119 83.0813 106.447 83.0813 106.447C79.2977 107.611 75.0291 107.611 75.0291 107.611C49.4183 105.671 49.7094 79.7697 49.7094 79.7697C49.7094 52.9222 78.1822 51.9764 78.1822 51.9764C94.9889 51.9764 94.4797 70.1658 94.4797 70.1658C93.6795 89.8104 75.0291 89.5674 75.0291 89.5674C63.3389 89.5674 64.1637 78.072 64.1637 78.072C65.037 64.8782 75.369 64.879 75.369 64.879C81.82 64.879 81.8926 68.4435 81.8926 68.4435C81.8926 70.8921 77.1152 73.2216 77.1152 73.2216C73.4772 74.8222 73.9139 78.4603 73.9139 78.4603C74.496 83.0195 77.6973 85.2117 77.6973 85.2117C79.2826 85.9847 78.6669 84.2323 78.6669 84.2323C76.0959 78.0724 81.5289 77.4414 81.5289 77.4414C83.2267 77.1987 86.2826 75.5014 86.2826 75.5014C89.9689 72.2519 89.193 67.3528 89.193 67.3528C87.3017 56.9244 75.8055 57.6516 75.8055 57.6516C54.5603 59.6887 55.5302 79.0905 55.5302 79.0905C56.934 99.8479 73.9621 99.657 73.9621 99.657C82.4985 99.657 86.8647 98.4928 86.8647 98.4928C95.4018 96.5528 97.0507 102.858 97.0507 102.858C99.6699 106.836 101.222 103.731 101.222 103.731C103.647 99.9479 111.408 84.4264 111.408 84.4264C114.075 79.1387 118.683 79.7697 118.683 79.7697C123.825 79.7697 120.236 71.8149 120.236 71.8149C117.132 65.703 110.486 48.8233 110.486 48.8233C108.789 43.7786 113.299 41.5477 113.299 41.5477C115.919 39.4136 112.184 37.2796 112.184 37.2796C104.036 32.4292 86.8647 32.3318 86.8647 32.3318C34.415 32.3318 33.7027 79.3822 33.7027 79.3822C33.7027 117.992 66.9774 120.223 66.9774 120.223C76.1449 121.096 82.1837 117.022 82.1837 117.022C86.3308 114.184 91.2784 116.512 91.2784 116.512C94.6252 118.186 98.5542 118.186 98.5542 118.186C106.194 118.186 117.98 99.7052 117.98 99.7052C123.219 92.6477 132.677 87.6468 132.677 87.6468C133.423 87.2013 132.642 87.1375 132.642 87.1375ZM102.398 41.4005C99.8826 42.8621 96.3053 45.5894 96.3053 45.5894C93.6078 47.6691 91.1351 47.0508 91.1351 47.0508C84.3752 45.5537 85.7639 40.8855 86.0364 40.1321C89.78 37.6981 99.2696 39.1319 102.398 41.4007M96.9689 91.485C96.9689 91.485 94.7434 89.3928 96.7692 87.0019C96.7692 87.0019 98.7166 84.756 100.602 84.5634C100.725 85.8115 100.871 89.8662 98.1824 92.8739C97.7587 92.3526 97.3137 91.8298 96.9689 91.485ZM105.442 69.9234C100.252 67.5951 101.998 62.5027 101.998 62.5027C102.486 61.0925 103.115 60.272 103.766 59.8187C109.238 61.3373 110.878 69.6128 111.138 71.1539C108.671 70.7262 108.116 70.8403 105.442 69.9234ZM43.437 115.091C43.437 115.958 42.1757 114.933 42.1757 114.933C38.6282 112.844 36.105 113.12 36.105 113.12C31.0593 113.12 25.699 120.294 25.699 120.294C23.7476 122.245 25.1861 119.781 25.1861 119.781C29.2857 112.75 32.7148 99.5599 32.7148 99.5599C32.9509 97.9828 33.7398 98.5349 33.7398 98.5349C38.1154 102.122 43.437 115.091 43.437 115.091ZM13.5184 87.4587C10.404 87.4587 13.0455 86.6703 13.0455 86.6703C26.8813 82.1373 29.4431 75.5941 29.4431 75.5941C30.6259 73.9781 30.9017 75.5941 30.9017 75.5941C32.2419 79.6152 32.0845 93.0958 32.0845 93.0958C31.8872 94.6721 30.3499 92.9382 30.3499 92.9382C25.3438 87.025 13.5184 87.4587 13.5184 87.4587ZM15.2918 53.4804C29.9952 58.9594 36.3807 52.8501 36.3807 52.8501C38.3513 51.707 37.9183 53.2837 37.9183 53.2837C37.051 58.9991 31.2165 69.6814 31.2165 69.6814C30.2116 70.6869 29.7189 69.0903 29.7189 69.0903C25.62 61.2 15.2918 54.2295 15.2918 54.2295C13.5973 52.9285 15.2918 53.4804 15.2918 53.4804ZM35.8287 23.6409C35.1984 21.5513 36.026 22.9711 36.026 22.9711C44.0673 39.4094 51.9905 36.4518 51.9905 36.4518C53.7646 36.2944 53.0154 37.0827 53.0154 37.0827C51.1628 40.9058 40.4801 49.0662 40.4801 49.0662C39.0614 49.7362 39.6917 47.5287 39.6917 47.5287C40.6772 39.6053 35.8287 23.6409 35.8287 23.6409ZM56.4448 32.9439C61.2961 29.3333 68.1723 8.9968 68.1723 8.9968C69.5723 5.19357 69.1772 7.99217 69.1772 7.99217C66.812 25.3368 73.2373 28.1344 73.2373 28.1344C75.0114 28.9228 73.592 29.6323 73.592 29.6323C68.3103 32.4706 56.4448 34.126 56.4448 34.126C54.9902 34.126 56.4448 32.9439 56.4448 32.9439Z" fill="#2B6E97"/>
</svg>
