<svg width="178" height="178" viewBox="0 0 178 178" fill="none" xmlns="http://www.w3.org/2000/svg">
<path d="M72.4505 42.3094C100.33 14.4294 143.068 2.65694 164.981 4.11894C168.067 4.33144 169.605 4.43344 171.586 6.41394C173.566 8.38594 173.668 9.93294 173.881 13.0184C175.343 34.9314 163.579 77.6694 135.69 105.549C109.791 131.449 70.4275 156.141 44.885 171.008C41.8845 172.759 40.38 173.634 39.1305 173.872C37.3808 174.198 35.5723 173.889 34.03 173.001C32.4876 172.113 31.3124 170.704 30.7155 169.027C30.2905 167.829 30.2905 166.052 30.2905 162.516C30.2905 159.142 30.2905 157.459 29.925 156.073C29.4197 154.151 28.4128 152.398 27.0075 150.992C25.6021 149.587 23.8487 148.58 21.9265 148.075C20.541 147.709 18.858 147.709 15.4835 147.709C11.939 147.709 10.171 147.709 8.96399 147.284C7.28892 146.686 5.88196 145.51 4.99558 143.968C4.1092 142.426 3.80143 140.618 4.12749 138.869C4.36549 137.611 5.23249 136.115 6.98349 133.106C21.8585 107.572 46.5425 68.2089 72.4505 42.3094Z" stroke="#1E272D" stroke-width="6.5" stroke-linecap="round" stroke-linejoin="round"/>
<path d="M165.705 55.3556C134.91 107.329 75.5688 58.7203 33.751 92.8948M46.2946 131.213L54.8403 122.759" stroke="#1E272D" stroke-width="6.5" stroke-linecap="round" stroke-linejoin="round"/>
</svg>
