<svg width="484" height="260" viewBox="0 0 484 260" fill="none" xmlns="http://www.w3.org/2000/svg">
<path fill-rule="evenodd" clip-rule="evenodd" d="M330.844 117.992C329.984 125.745 321.747 132.935 315.406 138.284C307.872 144.639 297.462 152.027 285.037 159.232C260.239 173.611 226.319 187.859 189.903 191.056C149.104 194.629 113.942 186.211 91.2998 174.771C88.3288 173.251 85.9961 170.967 84.5252 168.137C83.0542 165.308 82.4944 162.029 82.8995 158.613L87.1744 120.431C87.5319 117.022 88.8418 113.579 90.9789 110.434C93.1159 107.289 96.0083 104.546 99.3792 102.469C125.073 86.7954 162.826 71.9975 203.626 68.4239C240.057 65.2257 271.426 73.7689 293.456 84.0388C304.506 89.1814 313.443 94.8811 319.696 100.036C324.946 104.363 331.72 110.238 330.844 117.992Z" fill="#2B6E97"/>
<path d="M60.552 104.555C62.04 104.843 63.144 105.347 63.864 106.067C64.632 106.787 65.016 107.627 65.016 108.587C65.016 110.171 64.56 111.323 63.648 112.043C62.784 112.763 61.392 113.051 59.472 112.907C55.152 112.571 51.768 112.355 49.32 112.259C46.92 112.115 43.752 112.019 39.816 111.971C38.04 120.803 36.408 129.683 34.92 138.611C34.392 141.875 33.84 145.667 33.264 149.987C32.688 154.259 32.304 157.715 32.112 160.355C32.016 161.747 31.44 162.827 30.384 163.595C29.328 164.315 28.056 164.675 26.568 164.675C24.984 164.675 23.76 164.291 22.896 163.523C22.032 162.755 21.6 161.747 21.6 160.499C21.6 159.347 21.768 157.451 22.104 154.811C22.488 152.123 22.92 149.315 23.4 146.387C23.928 143.459 24.336 140.915 24.624 138.755C25.152 135.107 25.752 131.483 26.424 127.883C27.096 124.283 27.768 120.875 28.44 117.659C28.584 116.939 28.752 116.123 28.944 115.211C29.136 114.251 29.352 113.195 29.592 112.043C24.888 112.187 21.192 112.571 18.504 113.195C15.816 113.819 13.896 114.707 12.744 115.859C11.64 116.963 11.088 118.403 11.088 120.179C11.088 121.811 11.568 123.371 12.528 124.859C12.72 125.195 12.816 125.555 12.816 125.939C12.816 126.851 12.264 127.715 11.16 128.531C10.104 129.299 9 129.683 7.848 129.683C7.032 129.683 6.36 129.443 5.832 128.963C4.872 128.147 4.08 126.995 3.456 125.507C2.832 123.971 2.52 122.243 2.52 120.323C2.52 116.243 3.84 112.979 6.48 110.531C9.168 108.035 13.224 106.211 18.648 105.059C24.12 103.907 31.128 103.331 39.672 103.331C44.952 103.331 49.152 103.427 52.272 103.619C55.44 103.811 58.2 104.123 60.552 104.555ZM93.6191 148.259C94.2431 148.259 94.7231 148.547 95.0591 149.123C95.4431 149.699 95.6351 150.491 95.6351 151.499C95.6351 153.419 95.1791 154.907 94.2671 155.963C92.0591 158.507 89.7791 160.595 87.4271 162.227C85.1231 163.859 82.4831 164.675 79.5071 164.675C77.0591 164.675 75.2111 163.979 73.9631 162.587C72.7151 161.147 72.0911 159.083 72.0911 156.395C72.0911 155.051 72.4271 152.651 73.0991 149.195C73.7231 146.171 74.0351 144.083 74.0351 142.931C74.0351 142.163 73.7711 141.779 73.2431 141.779C72.6191 141.779 71.7311 142.595 70.5791 144.227C69.4271 145.811 68.2751 147.923 67.1231 150.563C65.9711 153.203 65.0351 155.987 64.3151 158.915C63.4031 162.755 61.1471 164.675 57.5471 164.675C56.1071 164.675 55.1471 164.171 54.6671 163.163C54.2351 162.107 54.0191 160.235 54.0191 157.547C54.0191 156.011 54.0431 154.787 54.0911 153.875L54.1631 148.115C54.1631 140.723 54.9071 133.019 56.3951 125.003C57.9311 116.987 60.1631 110.267 63.0911 104.843C66.0671 99.3712 69.6191 96.6352 73.7471 96.6352C75.9551 96.6352 77.7311 97.5952 79.0751 99.5152C80.4671 101.387 81.1631 103.835 81.1631 106.859C81.1631 111.707 79.7471 116.747 76.9151 121.979C74.0831 127.163 69.4751 133.235 63.0911 140.195C62.9471 142.691 62.8751 145.259 62.8751 147.899C64.4591 143.819 66.2111 140.507 68.1311 137.963C70.0991 135.371 72.0191 133.523 73.8911 132.419C75.8111 131.315 77.5631 130.763 79.1471 130.763C82.2671 130.763 83.8271 132.323 83.8271 135.443C83.8271 137.315 83.2991 140.699 82.2431 145.595C81.3311 149.771 80.8751 152.531 80.8751 153.875C80.8751 155.795 81.5711 156.755 82.9631 156.755C83.9231 156.755 85.0511 156.179 86.3471 155.027C87.6911 153.827 89.4671 151.907 91.6751 149.267C92.2511 148.595 92.8991 148.259 93.6191 148.259ZM72.2351 103.763C71.3711 103.763 70.4111 105.011 69.3551 107.507C68.2991 109.955 67.2671 113.291 66.2591 117.515C65.2991 121.691 64.5071 126.251 63.8831 131.195C66.8591 127.691 69.3071 123.875 71.2271 119.747C73.1951 115.619 74.1791 111.875 74.1791 108.515C74.1791 106.979 74.0111 105.803 73.6751 104.987C73.3391 104.171 72.8591 103.763 72.2351 103.763ZM115.576 150.419C116.2 150.419 116.68 150.707 117.016 151.283C117.4 151.859 117.592 152.651 117.592 153.659C117.592 155.387 117.184 156.875 116.368 158.123C115.024 160.187 113.248 161.795 111.04 162.947C108.88 164.099 106.288 164.675 103.264 164.675C98.6558 164.675 95.0798 163.307 92.5358 160.571C89.9918 157.787 88.7197 154.043 88.7197 149.339C88.7197 146.027 89.4158 142.955 90.8078 140.123C92.1998 137.243 94.1198 134.963 96.5678 133.283C99.0638 131.603 101.872 130.763 104.992 130.763C107.776 130.763 110.008 131.603 111.688 133.283C113.368 134.915 114.208 137.147 114.208 139.979C114.208 143.291 113.008 146.147 110.608 148.547C108.256 150.899 104.224 152.771 98.5118 154.163C99.6638 156.371 101.608 157.475 104.344 157.475C106.312 157.475 107.92 157.019 109.168 156.107C110.464 155.195 111.952 153.659 113.632 151.499C114.208 150.779 114.856 150.419 115.576 150.419ZM103.768 137.819C101.992 137.819 100.48 138.851 99.2318 140.915C98.0318 142.979 97.4318 145.475 97.4318 148.403V148.547C100.264 147.875 102.496 146.867 104.128 145.523C105.76 144.179 106.576 142.619 106.576 140.843C106.576 139.931 106.312 139.211 105.784 138.683C105.304 138.107 104.632 137.819 103.768 137.819ZM158.544 164.891C152.16 164.891 147.048 163.691 143.208 161.291C139.368 158.843 137.448 155.123 137.448 150.131C137.448 147.491 137.904 145.475 138.816 144.083C139.728 142.691 141.072 141.995 142.848 141.995C144.144 141.995 145.2 142.331 146.016 143.003C146.832 143.675 147.24 144.539 147.24 145.595C147.24 146.555 147.168 147.395 147.024 148.115C147.024 148.307 146.976 148.643 146.88 149.123C146.832 149.603 146.808 150.107 146.808 150.635C146.808 152.795 147.888 154.403 150.048 155.459C152.256 156.515 155.328 157.043 159.264 157.043C163.344 157.043 166.536 156.323 168.84 154.883C171.144 153.395 172.296 151.331 172.296 148.691C172.296 147.059 171.768 145.667 170.712 144.515C169.656 143.315 168.336 142.331 166.752 141.563C165.168 140.747 162.936 139.763 160.056 138.611C156.36 137.171 153.336 135.803 150.984 134.507C148.68 133.211 146.688 131.459 145.008 129.251C143.376 126.995 142.56 124.211 142.56 120.899C142.56 117.443 143.472 114.371 145.296 111.683C147.168 108.995 149.832 106.907 153.288 105.419C156.792 103.931 160.896 103.187 165.6 103.187C169.104 103.187 172.32 103.715 175.248 104.771C178.176 105.779 180.504 107.339 182.232 109.451C184.008 111.563 184.896 114.155 184.896 117.227C184.896 120.251 184.44 122.531 183.528 124.067C182.616 125.603 181.272 126.371 179.496 126.371C178.248 126.371 177.192 125.987 176.328 125.219C175.512 124.451 175.104 123.539 175.104 122.483C175.104 121.571 175.176 120.731 175.32 119.963C175.464 118.523 175.536 117.611 175.536 117.227C175.536 115.211 174.552 113.675 172.584 112.619C170.616 111.563 168.168 111.035 165.24 111.035C161.112 111.035 157.944 111.803 155.736 113.339C153.576 114.827 152.496 116.939 152.496 119.675C152.496 121.499 153.048 123.059 154.152 124.355C155.304 125.651 156.72 126.731 158.4 127.595C160.08 128.459 162.432 129.491 165.456 130.691C169.104 132.179 172.032 133.523 174.24 134.723C176.448 135.923 178.32 137.555 179.856 139.619C181.44 141.683 182.232 144.227 182.232 147.251C182.232 152.915 180.072 157.283 175.752 160.355C171.48 163.379 165.744 164.891 158.544 164.891ZM195.37 164.675C193.21 164.675 191.434 163.691 190.042 161.723C188.698 159.707 188.026 157.211 188.026 154.235C188.026 150.635 188.266 147.347 188.746 144.371C189.226 141.347 190.018 138.155 191.122 134.795C191.602 133.355 192.274 132.323 193.138 131.699C194.002 131.075 195.37 130.763 197.242 130.763C198.298 130.763 199.018 130.931 199.402 131.267C199.834 131.603 200.05 132.107 200.05 132.779C200.05 133.163 199.786 134.459 199.258 136.667C198.778 138.443 198.394 140.051 198.106 141.491C197.146 146.531 196.666 149.891 196.666 151.571C196.666 152.579 196.786 153.299 197.026 153.731C197.266 154.115 197.65 154.307 198.178 154.307C198.898 154.307 199.786 153.587 200.842 152.147C201.946 150.707 203.098 148.523 204.298 145.595C205.546 142.667 206.746 139.067 207.898 134.795C208.282 133.355 208.858 132.323 209.626 131.699C210.442 131.075 211.642 130.763 213.226 130.763C214.33 130.763 215.098 130.907 215.53 131.195C215.962 131.435 216.178 131.915 216.178 132.635C216.178 133.835 215.578 137.123 214.378 142.499C213.034 148.643 212.362 152.435 212.362 153.875C212.362 154.787 212.554 155.507 212.938 156.035C213.322 156.515 213.826 156.755 214.45 156.755C215.41 156.755 216.538 156.179 217.834 155.027C219.178 153.827 220.954 151.907 223.162 149.267C223.738 148.595 224.386 148.259 225.106 148.259C225.73 148.259 226.21 148.547 226.546 149.123C226.93 149.699 227.122 150.491 227.122 151.499C227.122 153.419 226.666 154.907 225.754 155.963C223.69 158.507 221.458 160.595 219.058 162.227C216.706 163.859 214.018 164.675 210.994 164.675C208.69 164.675 206.986 163.787 205.882 162.011C204.826 160.235 204.298 157.739 204.298 154.523C203.482 157.787 202.258 160.307 200.626 162.083C198.994 163.811 197.242 164.675 195.37 164.675ZM226.396 164.675C224.572 164.675 223.276 163.715 222.508 161.795C221.788 159.875 221.428 156.803 221.428 152.579C221.428 146.339 222.316 140.411 224.092 134.795C224.524 133.403 225.22 132.395 226.18 131.771C227.188 131.099 228.58 130.763 230.356 130.763C231.316 130.763 231.988 130.883 232.372 131.123C232.756 131.363 232.948 131.819 232.948 132.491C232.948 133.259 232.588 134.987 231.868 137.675C231.388 139.595 231.004 141.275 230.716 142.715C230.428 144.155 230.188 145.931 229.996 148.043C231.58 143.915 233.356 140.555 235.324 137.963C237.292 135.371 239.212 133.523 241.084 132.419C243.004 131.315 244.756 130.763 246.34 130.763C249.46 130.763 251.02 132.323 251.02 135.443C251.02 136.067 250.804 137.579 250.372 139.979C249.988 141.899 249.796 143.099 249.796 143.579C249.796 145.259 250.396 146.099 251.596 146.099C252.94 146.099 254.668 145.043 256.78 142.931C257.404 142.307 258.052 141.995 258.724 141.995C259.348 141.995 259.828 142.283 260.164 142.859C260.548 143.387 260.74 144.107 260.74 145.019C260.74 146.795 260.26 148.187 259.3 149.195C257.956 150.587 256.372 151.787 254.548 152.795C252.772 153.755 250.876 154.235 248.86 154.235C246.316 154.235 244.372 153.587 243.028 152.291C241.732 150.995 241.084 149.243 241.084 147.035C241.084 146.315 241.156 145.595 241.3 144.875C241.396 143.915 241.444 143.267 241.444 142.931C241.444 142.163 241.18 141.779 240.652 141.779C239.932 141.779 238.972 142.595 237.772 144.227C236.62 145.811 235.468 147.923 234.316 150.563C233.164 153.203 232.228 155.987 231.508 158.915C230.98 161.171 230.356 162.707 229.636 163.523C228.964 164.291 227.884 164.675 226.396 164.675ZM282.778 144.155C284.122 144.155 284.794 145.163 284.794 147.179C284.794 150.971 281.818 152.867 275.866 152.867C274.714 152.867 273.058 152.651 270.898 152.219C271.522 155.195 272.026 158.507 272.41 162.155C272.842 165.755 273.058 168.731 273.058 171.083C273.058 176.267 272.218 180.227 270.538 182.963C268.858 185.699 266.65 187.067 263.914 187.067C260.458 187.067 257.986 184.619 256.498 179.723C255.058 174.827 254.338 167.435 254.338 157.547C254.338 148.331 255.322 138.995 257.29 129.539C259.306 120.035 262.042 112.187 265.498 105.995C269.002 99.7552 272.842 96.6352 277.018 96.6352C279.274 96.6352 281.026 97.6432 282.274 99.6592C283.57 101.675 284.218 104.387 284.218 107.795C284.218 119.075 277.474 131.363 263.986 144.659C263.506 149.363 263.266 153.491 263.266 157.043C263.266 161.987 263.434 167.051 263.77 172.235C264.106 177.467 264.658 180.083 265.426 180.083C266.866 180.083 267.586 177.587 267.586 172.595C267.586 168.851 267.322 165.227 266.794 161.723C266.314 158.219 265.642 154.523 264.778 150.635C264.73 150.011 264.922 149.219 265.354 148.259C265.834 147.299 266.41 146.459 267.082 145.739C267.754 145.019 268.354 144.659 268.882 144.659C269.842 144.659 270.994 144.707 272.338 144.803C272.77 144.851 273.274 144.875 273.85 144.875C275.77 144.875 277.906 144.707 280.258 144.371C280.642 144.323 281.05 144.275 281.482 144.227C281.914 144.179 282.346 144.155 282.778 144.155ZM275.506 103.763C274.642 103.763 273.562 105.227 272.266 108.155C271.018 111.083 269.77 114.971 268.522 119.819C267.274 124.619 266.194 129.707 265.282 135.083C269.122 130.715 272.074 126.179 274.138 121.475C276.202 116.723 277.258 112.283 277.306 108.155C277.306 105.227 276.706 103.763 275.506 103.763ZM319.911 164.891C313.527 164.891 308.415 163.691 304.575 161.291C300.735 158.843 298.815 155.123 298.815 150.131C298.815 147.491 299.271 145.475 300.183 144.083C301.095 142.691 302.439 141.995 304.215 141.995C305.511 141.995 306.567 142.331 307.383 143.003C308.199 143.675 308.607 144.539 308.607 145.595C308.607 146.555 308.535 147.395 308.391 148.115C308.391 148.307 308.343 148.643 308.247 149.123C308.199 149.603 308.175 150.107 308.175 150.635C308.175 152.795 309.255 154.403 311.415 155.459C313.623 156.515 316.695 157.043 320.631 157.043C324.711 157.043 327.903 156.323 330.207 154.883C332.511 153.395 333.663 151.331 333.663 148.691C333.663 147.059 333.135 145.667 332.079 144.515C331.023 143.315 329.703 142.331 328.119 141.563C326.535 140.747 324.303 139.763 321.423 138.611C317.727 137.171 314.703 135.803 312.351 134.507C310.047 133.211 308.055 131.459 306.375 129.251C304.743 126.995 303.927 124.211 303.927 120.899C303.927 117.443 304.839 114.371 306.663 111.683C308.535 108.995 311.199 106.907 314.655 105.419C318.159 103.931 322.263 103.187 326.967 103.187C330.471 103.187 333.687 103.715 336.615 104.771C339.543 105.779 341.871 107.339 343.599 109.451C345.375 111.563 346.263 114.155 346.263 117.227C346.263 120.251 345.807 122.531 344.895 124.067C343.983 125.603 342.639 126.371 340.863 126.371C339.615 126.371 338.559 125.987 337.695 125.219C336.879 124.451 336.471 123.539 336.471 122.483C336.471 121.571 336.543 120.731 336.687 119.963C336.831 118.523 336.903 117.611 336.903 117.227C336.903 115.211 335.919 113.675 333.951 112.619C331.983 111.563 329.535 111.035 326.607 111.035C322.479 111.035 319.311 111.803 317.103 113.339C314.943 114.827 313.863 116.939 313.863 119.675C313.863 121.499 314.415 123.059 315.519 124.355C316.671 125.651 318.087 126.731 319.767 127.595C321.447 128.459 323.799 129.491 326.823 130.691C330.471 132.179 333.399 133.523 335.607 134.723C337.815 135.923 339.687 137.555 341.223 139.619C342.807 141.683 343.599 144.227 343.599 147.251C343.599 152.915 341.439 157.283 337.119 160.355C332.847 163.379 327.111 164.891 319.911 164.891ZM389.002 148.259C389.626 148.259 390.106 148.547 390.442 149.123C390.826 149.699 391.018 150.491 391.018 151.499C391.018 153.419 390.562 154.907 389.65 155.963C387.442 158.507 385.162 160.595 382.81 162.227C380.506 163.859 377.866 164.675 374.89 164.675C372.442 164.675 370.594 163.979 369.346 162.587C368.098 161.147 367.474 159.083 367.474 156.395C367.474 155.051 367.81 152.651 368.482 149.195C369.106 146.171 369.418 144.083 369.418 142.931C369.418 142.163 369.154 141.779 368.626 141.779C368.002 141.779 367.114 142.595 365.962 144.227C364.81 145.811 363.658 147.923 362.506 150.563C361.354 153.203 360.418 155.987 359.698 158.915C358.786 162.755 356.53 164.675 352.93 164.675C351.49 164.675 350.53 164.171 350.05 163.163C349.618 162.107 349.402 160.235 349.402 157.547C349.402 156.011 349.426 154.787 349.474 153.875L349.546 148.115C349.546 140.723 350.29 133.019 351.778 125.003C353.314 116.987 355.546 110.267 358.474 104.843C361.45 99.3712 365.002 96.6352 369.13 96.6352C371.338 96.6352 373.114 97.5952 374.458 99.5152C375.85 101.387 376.546 103.835 376.546 106.859C376.546 111.707 375.13 116.747 372.298 121.979C369.466 127.163 364.858 133.235 358.474 140.195C358.33 142.691 358.258 145.259 358.258 147.899C359.842 143.819 361.594 140.507 363.514 137.963C365.482 135.371 367.402 133.523 369.274 132.419C371.194 131.315 372.946 130.763 374.53 130.763C377.65 130.763 379.21 132.323 379.21 135.443C379.21 137.315 378.682 140.699 377.626 145.595C376.714 149.771 376.258 152.531 376.258 153.875C376.258 155.795 376.954 156.755 378.346 156.755C379.306 156.755 380.434 156.179 381.73 155.027C383.074 153.827 384.85 151.907 387.058 149.267C387.634 148.595 388.282 148.259 389.002 148.259ZM367.618 103.763C366.754 103.763 365.794 105.011 364.738 107.507C363.682 109.955 362.65 113.291 361.642 117.515C360.682 121.691 359.89 126.251 359.266 131.195C362.242 127.691 364.69 123.875 366.61 119.747C368.578 115.619 369.562 111.875 369.562 108.515C369.562 106.979 369.394 105.803 369.058 104.987C368.722 104.171 368.242 103.763 367.618 103.763ZM394.039 164.675C391.063 164.675 388.687 163.595 386.911 161.435C385.135 159.275 384.247 156.443 384.247 152.939C384.247 149.099 385.135 145.475 386.911 142.067C388.687 138.611 391.039 135.851 393.967 133.787C396.943 131.675 400.087 130.619 403.399 130.619C404.455 130.619 405.151 130.835 405.487 131.267C405.871 131.651 406.183 132.371 406.423 133.427C407.431 133.235 408.487 133.139 409.591 133.139C411.943 133.139 413.119 133.979 413.119 135.659C413.119 136.667 412.759 139.067 412.039 142.859C410.935 148.379 410.383 152.219 410.383 154.379C410.383 155.099 410.551 155.675 410.887 156.107C411.271 156.539 411.751 156.755 412.327 156.755C413.239 156.755 414.343 156.179 415.639 155.027C416.935 153.827 418.687 151.907 420.895 149.267C421.471 148.595 422.119 148.259 422.839 148.259C423.463 148.259 423.943 148.547 424.279 149.123C424.663 149.699 424.855 150.491 424.855 151.499C424.855 153.419 424.399 154.907 423.487 155.963C421.519 158.411 419.431 160.475 417.223 162.155C415.015 163.835 412.879 164.675 410.815 164.675C409.231 164.675 407.767 164.147 406.423 163.091C405.127 161.987 404.143 160.499 403.471 158.627C400.975 162.659 397.831 164.675 394.039 164.675ZM396.631 157.403C397.687 157.403 398.695 156.779 399.655 155.531C400.615 154.283 401.311 152.627 401.743 150.563L404.407 137.315C402.391 137.363 400.519 138.131 398.791 139.619C397.111 141.059 395.767 142.979 394.759 145.379C393.751 147.779 393.247 150.323 393.247 153.011C393.247 154.499 393.535 155.603 394.111 156.323C394.735 157.043 395.575 157.403 396.631 157.403ZM432.755 164.675C428.051 164.675 424.379 163.355 421.739 160.715C419.147 158.027 417.851 154.499 417.851 150.131C417.851 146.243 418.619 142.835 420.155 139.907C421.691 136.979 423.683 134.723 426.131 133.139C428.579 131.555 431.147 130.763 433.835 130.763C436.475 130.763 438.515 131.555 439.955 133.139C441.443 134.675 442.187 136.667 442.187 139.115C442.187 141.131 441.731 142.835 440.819 144.227C439.955 145.619 438.803 146.315 437.363 146.315C436.451 146.315 435.707 146.099 435.131 145.667C434.603 145.235 434.339 144.635 434.339 143.867C434.339 143.531 434.387 143.147 434.483 142.715C434.579 142.283 434.651 141.971 434.699 141.779C434.939 141.059 435.059 140.387 435.059 139.763C435.059 139.139 434.891 138.659 434.555 138.323C434.267 137.987 433.835 137.819 433.259 137.819C432.155 137.819 431.123 138.323 430.163 139.331C429.203 140.291 428.435 141.611 427.859 143.291C427.283 144.971 426.995 146.819 426.995 148.835C426.995 154.403 429.419 157.187 434.267 157.187C436.235 157.187 438.347 156.539 440.603 155.243C442.907 153.899 445.163 151.907 447.371 149.267C447.947 148.595 448.595 148.259 449.315 148.259C449.939 148.259 450.419 148.547 450.755 149.123C451.139 149.699 451.331 150.491 451.331 151.499C451.331 153.323 450.875 154.811 449.963 155.963C447.707 158.747 444.995 160.907 441.827 162.443C438.707 163.931 435.683 164.675 432.755 164.675ZM476.111 156.827C478.079 157.211 479.063 158.291 479.063 160.067C479.063 161.267 478.511 162.347 477.407 163.307C476.351 164.219 474.815 164.675 472.799 164.675C469.343 164.675 466.511 163.619 464.303 161.507C462.143 159.347 461.063 156.539 461.063 153.083C461.063 151.211 462.023 149.867 463.943 149.051C466.055 148.139 467.567 147.179 468.479 146.171C469.391 145.115 469.847 143.843 469.847 142.355C469.847 141.491 469.655 140.843 469.271 140.411C468.935 139.979 468.503 139.763 467.975 139.763C466.679 139.763 465.239 140.699 463.655 142.571C462.119 144.443 460.679 146.867 459.335 149.843C457.991 152.771 456.935 155.795 456.167 158.915C455.639 161.171 455.015 162.707 454.295 163.523C453.623 164.291 452.543 164.675 451.055 164.675C449.567 164.675 448.463 164.147 447.743 163.091C447.071 161.987 446.615 160.307 446.375 158.051C446.135 155.795 446.015 152.483 446.015 148.115C446.015 140.723 446.759 133.019 448.247 125.003C449.783 116.987 452.015 110.267 454.943 104.843C457.919 99.3712 461.471 96.6352 465.599 96.6352C467.807 96.6352 469.583 97.5952 470.927 99.5152C472.319 101.387 473.015 103.835 473.015 106.859C473.015 111.707 471.599 116.747 468.767 121.979C465.935 127.163 461.327 133.235 454.943 140.195C454.799 142.691 454.727 145.259 454.727 147.899C457.031 141.899 459.671 137.555 462.647 134.867C465.623 132.131 468.407 130.763 470.999 130.763C473.399 130.763 475.319 131.579 476.759 133.211C478.247 134.843 478.991 136.859 478.991 139.259C478.991 141.899 478.319 144.323 476.975 146.531C475.631 148.739 473.327 150.707 470.063 152.435C470.351 153.875 470.927 154.883 471.791 155.459C472.703 155.987 474.143 156.443 476.111 156.827ZM464.087 103.763C463.223 103.763 462.263 105.011 461.207 107.507C460.151 109.955 459.119 113.291 458.111 117.515C457.151 121.691 456.359 126.251 455.735 131.195C458.711 127.691 461.159 123.875 463.079 119.747C465.047 115.619 466.031 111.875 466.031 108.515C466.031 106.979 465.863 105.803 465.527 104.987C465.191 104.171 464.711 103.763 464.087 103.763Z" fill="#F4F4F4"/>
</svg>
