<svg width="484" height="347" viewBox="0 0 484 347" fill="none" xmlns="http://www.w3.org/2000/svg">
<path fill-rule="evenodd" clip-rule="evenodd" d="M370.37 174.052C370.345 184.422 361.135 193.127 354.019 199.578C345.566 207.243 333.699 215.949 319.32 224.164C290.62 240.555 250.636 255.652 206.094 255.513C156.188 255.346 111.64 239.666 82.1477 221.437C78.2754 219.019 75.089 215.648 72.8941 211.645C70.6991 207.642 69.5691 203.143 69.6123 198.578L69.7833 147.512C69.7686 142.949 70.9258 138.458 73.144 134.471C75.3623 130.483 78.5673 127.131 82.4522 124.737C112.085 106.706 156.728 91.335 206.634 91.5021C251.195 91.6416 291.077 107.025 319.656 123.599C333.99 131.9 345.789 140.695 354.2 148.426C361.263 154.915 370.414 163.682 370.37 174.052Z" fill="#2B6E97"/>
<path d="M60.6029 145.409C62.0909 145.697 63.1949 146.201 63.9149 146.921C64.6829 147.641 65.0669 148.481 65.0669 149.441C65.0669 151.025 64.6109 152.177 63.6989 152.897C62.8349 153.617 61.4429 153.905 59.5229 153.761C55.2029 153.425 51.8189 153.209 49.3709 153.113C46.9709 152.969 43.8029 152.873 39.8669 152.825C38.0909 161.657 36.4589 170.537 34.9709 179.465C34.4429 182.729 33.8909 186.521 33.3149 190.841C32.7389 195.113 32.3549 198.569 32.1629 201.209C32.0669 202.601 31.4909 203.681 30.4349 204.449C29.3789 205.169 28.1069 205.529 26.6189 205.529C25.0349 205.529 23.8109 205.145 22.9469 204.377C22.0829 203.609 21.6509 202.601 21.6509 201.353C21.6509 200.201 21.8189 198.305 22.1549 195.665C22.5389 192.977 22.9709 190.169 23.4509 187.241C23.9789 184.313 24.3869 181.769 24.6749 179.609C25.2029 175.961 25.8029 172.337 26.4749 168.737C27.1469 165.137 27.8189 161.729 28.4909 158.513C28.6349 157.793 28.8029 156.977 28.9949 156.065C29.1869 155.105 29.4029 154.049 29.6429 152.897C24.9389 153.041 21.2429 153.425 18.5549 154.049C15.8669 154.673 13.9469 155.561 12.7949 156.713C11.6909 157.817 11.1389 159.257 11.1389 161.033C11.1389 162.665 11.6189 164.225 12.5789 165.713C12.7709 166.049 12.8669 166.409 12.8669 166.793C12.8669 167.705 12.3149 168.569 11.2109 169.385C10.1549 170.153 9.05087 170.537 7.89887 170.537C7.08287 170.537 6.41087 170.297 5.88287 169.817C4.92287 169.001 4.13087 167.849 3.50687 166.361C2.88287 164.825 2.57087 163.097 2.57087 161.177C2.57087 157.097 3.89087 153.833 6.53087 151.385C9.21887 148.889 13.2749 147.065 18.6989 145.913C24.1709 144.761 31.1789 144.185 39.7229 144.185C45.0029 144.185 49.2029 144.281 52.3229 144.473C55.4909 144.665 58.2509 144.977 60.6029 145.409ZM93.67 189.113C94.294 189.113 94.774 189.401 95.11 189.977C95.494 190.553 95.686 191.345 95.686 192.353C95.686 194.273 95.23 195.761 94.318 196.817C92.11 199.361 89.83 201.449 87.478 203.081C85.174 204.713 82.534 205.529 79.558 205.529C77.11 205.529 75.262 204.833 74.014 203.441C72.766 202.001 72.142 199.937 72.142 197.249C72.142 195.905 72.478 193.505 73.15 190.049C73.774 187.025 74.086 184.937 74.086 183.785C74.086 183.017 73.822 182.633 73.294 182.633C72.67 182.633 71.782 183.449 70.63 185.081C69.478 186.665 68.326 188.777 67.174 191.417C66.022 194.057 65.086 196.841 64.366 199.769C63.454 203.609 61.198 205.529 57.598 205.529C56.158 205.529 55.198 205.025 54.718 204.017C54.286 202.961 54.07 201.089 54.07 198.401C54.07 196.865 54.094 195.641 54.142 194.729L54.214 188.969C54.214 181.577 54.958 173.873 56.446 165.857C57.982 157.841 60.214 151.121 63.142 145.697C66.118 140.225 69.67 137.489 73.798 137.489C76.006 137.489 77.782 138.449 79.126 140.369C80.518 142.241 81.214 144.689 81.214 147.713C81.214 152.561 79.798 157.601 76.966 162.833C74.134 168.017 69.526 174.089 63.142 181.049C62.998 183.545 62.926 186.113 62.926 188.753C64.51 184.673 66.262 181.361 68.182 178.817C70.15 176.225 72.07 174.377 73.942 173.273C75.862 172.169 77.614 171.617 79.198 171.617C82.318 171.617 83.878 173.177 83.878 176.297C83.878 178.169 83.35 181.553 82.294 186.449C81.382 190.625 80.926 193.385 80.926 194.729C80.926 196.649 81.622 197.609 83.014 197.609C83.974 197.609 85.102 197.033 86.398 195.881C87.742 194.681 89.518 192.761 91.726 190.121C92.302 189.449 92.95 189.113 93.67 189.113ZM72.286 144.617C71.422 144.617 70.462 145.865 69.406 148.361C68.35 150.809 67.318 154.145 66.31 158.369C65.35 162.545 64.558 167.105 63.934 172.049C66.91 168.545 69.358 164.729 71.278 160.601C73.246 156.473 74.23 152.729 74.23 149.369C74.23 147.833 74.062 146.657 73.726 145.841C73.39 145.025 72.91 144.617 72.286 144.617ZM115.627 191.273C116.251 191.273 116.731 191.561 117.067 192.137C117.451 192.713 117.643 193.505 117.643 194.513C117.643 196.241 117.235 197.729 116.419 198.977C115.075 201.041 113.299 202.649 111.091 203.801C108.931 204.953 106.339 205.529 103.315 205.529C98.7066 205.529 95.1306 204.161 92.5866 201.425C90.0426 198.641 88.7706 194.897 88.7706 190.193C88.7706 186.881 89.4666 183.809 90.8586 180.977C92.2506 178.097 94.1706 175.817 96.6186 174.137C99.1146 172.457 101.923 171.617 105.043 171.617C107.827 171.617 110.059 172.457 111.739 174.137C113.419 175.769 114.259 178.001 114.259 180.833C114.259 184.145 113.059 187.001 110.659 189.401C108.307 191.753 104.275 193.625 98.5626 195.017C99.7146 197.225 101.659 198.329 104.395 198.329C106.363 198.329 107.971 197.873 109.219 196.961C110.515 196.049 112.003 194.513 113.683 192.353C114.259 191.633 114.907 191.273 115.627 191.273ZM103.819 178.673C102.043 178.673 100.531 179.705 99.2826 181.769C98.0826 183.833 97.4826 186.329 97.4826 189.257V189.401C100.315 188.729 102.547 187.721 104.179 186.377C105.811 185.033 106.627 183.473 106.627 181.697C106.627 180.785 106.363 180.065 105.835 179.537C105.355 178.961 104.683 178.673 103.819 178.673ZM158.595 205.745C152.211 205.745 147.099 204.545 143.259 202.145C139.419 199.697 137.499 195.977 137.499 190.985C137.499 188.345 137.955 186.329 138.867 184.937C139.779 183.545 141.123 182.849 142.899 182.849C144.195 182.849 145.251 183.185 146.067 183.857C146.883 184.529 147.291 185.393 147.291 186.449C147.291 187.409 147.219 188.249 147.075 188.969C147.075 189.161 147.027 189.497 146.931 189.977C146.883 190.457 146.859 190.961 146.859 191.489C146.859 193.649 147.939 195.257 150.099 196.313C152.307 197.369 155.379 197.897 159.315 197.897C163.395 197.897 166.587 197.177 168.891 195.737C171.195 194.249 172.347 192.185 172.347 189.545C172.347 187.913 171.819 186.521 170.763 185.369C169.707 184.169 168.387 183.185 166.803 182.417C165.219 181.601 162.987 180.617 160.107 179.465C156.411 178.025 153.387 176.657 151.035 175.361C148.731 174.065 146.739 172.313 145.059 170.105C143.427 167.849 142.611 165.065 142.611 161.753C142.611 158.297 143.523 155.225 145.347 152.537C147.219 149.849 149.883 147.761 153.339 146.273C156.843 144.785 160.947 144.041 165.651 144.041C169.155 144.041 172.371 144.569 175.299 145.625C178.227 146.633 180.555 148.193 182.283 150.305C184.059 152.417 184.947 155.009 184.947 158.081C184.947 161.105 184.491 163.385 183.579 164.921C182.667 166.457 181.323 167.225 179.547 167.225C178.299 167.225 177.243 166.841 176.379 166.073C175.563 165.305 175.155 164.393 175.155 163.337C175.155 162.425 175.227 161.585 175.371 160.817C175.515 159.377 175.587 158.465 175.587 158.081C175.587 156.065 174.603 154.529 172.635 153.473C170.667 152.417 168.219 151.889 165.291 151.889C161.163 151.889 157.995 152.657 155.787 154.193C153.627 155.681 152.547 157.793 152.547 160.529C152.547 162.353 153.099 163.913 154.203 165.209C155.355 166.505 156.771 167.585 158.451 168.449C160.131 169.313 162.483 170.345 165.507 171.545C169.155 173.033 172.083 174.377 174.291 175.577C176.499 176.777 178.371 178.409 179.907 180.473C181.491 182.537 182.283 185.081 182.283 188.105C182.283 193.769 180.123 198.137 175.803 201.209C171.531 204.233 165.795 205.745 158.595 205.745ZM195.421 205.529C193.261 205.529 191.485 204.545 190.093 202.577C188.749 200.561 188.077 198.065 188.077 195.089C188.077 191.489 188.317 188.201 188.797 185.225C189.277 182.201 190.069 179.009 191.173 175.649C191.653 174.209 192.325 173.177 193.189 172.553C194.053 171.929 195.421 171.617 197.293 171.617C198.349 171.617 199.069 171.785 199.453 172.121C199.885 172.457 200.101 172.961 200.101 173.633C200.101 174.017 199.837 175.313 199.309 177.521C198.829 179.297 198.445 180.905 198.157 182.345C197.197 187.385 196.717 190.745 196.717 192.425C196.717 193.433 196.837 194.153 197.077 194.585C197.317 194.969 197.701 195.161 198.229 195.161C198.949 195.161 199.837 194.441 200.893 193.001C201.997 191.561 203.149 189.377 204.349 186.449C205.597 183.521 206.797 179.921 207.949 175.649C208.333 174.209 208.909 173.177 209.677 172.553C210.493 171.929 211.693 171.617 213.277 171.617C214.381 171.617 215.149 171.761 215.581 172.049C216.013 172.289 216.229 172.769 216.229 173.489C216.229 174.689 215.629 177.977 214.429 183.353C213.085 189.497 212.413 193.289 212.413 194.729C212.413 195.641 212.605 196.361 212.989 196.889C213.373 197.369 213.877 197.609 214.501 197.609C215.461 197.609 216.589 197.033 217.885 195.881C219.229 194.681 221.005 192.761 223.213 190.121C223.789 189.449 224.437 189.113 225.157 189.113C225.781 189.113 226.261 189.401 226.597 189.977C226.981 190.553 227.173 191.345 227.173 192.353C227.173 194.273 226.717 195.761 225.805 196.817C223.741 199.361 221.509 201.449 219.109 203.081C216.757 204.713 214.069 205.529 211.045 205.529C208.741 205.529 207.037 204.641 205.933 202.865C204.877 201.089 204.349 198.593 204.349 195.377C203.533 198.641 202.309 201.161 200.677 202.937C199.045 204.665 197.293 205.529 195.421 205.529ZM226.447 205.529C224.623 205.529 223.327 204.569 222.559 202.649C221.839 200.729 221.479 197.657 221.479 193.433C221.479 187.193 222.367 181.265 224.143 175.649C224.575 174.257 225.271 173.249 226.231 172.625C227.239 171.953 228.631 171.617 230.407 171.617C231.367 171.617 232.039 171.737 232.423 171.977C232.807 172.217 232.999 172.673 232.999 173.345C232.999 174.113 232.639 175.841 231.919 178.529C231.439 180.449 231.055 182.129 230.767 183.569C230.479 185.009 230.239 186.785 230.047 188.897C231.631 184.769 233.407 181.409 235.375 178.817C237.343 176.225 239.263 174.377 241.135 173.273C243.055 172.169 244.807 171.617 246.391 171.617C249.511 171.617 251.071 173.177 251.071 176.297C251.071 176.921 250.855 178.433 250.423 180.833C250.039 182.753 249.847 183.953 249.847 184.433C249.847 186.113 250.447 186.953 251.647 186.953C252.991 186.953 254.719 185.897 256.831 183.785C257.455 183.161 258.103 182.849 258.775 182.849C259.399 182.849 259.879 183.137 260.215 183.713C260.599 184.241 260.791 184.961 260.791 185.873C260.791 187.649 260.311 189.041 259.351 190.049C258.007 191.441 256.423 192.641 254.599 193.649C252.823 194.609 250.927 195.089 248.911 195.089C246.367 195.089 244.423 194.441 243.079 193.145C241.783 191.849 241.135 190.097 241.135 187.889C241.135 187.169 241.207 186.449 241.351 185.729C241.447 184.769 241.495 184.121 241.495 183.785C241.495 183.017 241.231 182.633 240.703 182.633C239.983 182.633 239.023 183.449 237.823 185.081C236.671 186.665 235.519 188.777 234.367 191.417C233.215 194.057 232.279 196.841 231.559 199.769C231.031 202.025 230.407 203.561 229.687 204.377C229.015 205.145 227.935 205.529 226.447 205.529ZM282.829 185.009C284.173 185.009 284.845 186.017 284.845 188.033C284.845 191.825 281.869 193.721 275.917 193.721C274.765 193.721 273.109 193.505 270.949 193.073C271.573 196.049 272.077 199.361 272.461 203.009C272.893 206.609 273.109 209.585 273.109 211.937C273.109 217.121 272.269 221.081 270.589 223.817C268.909 226.553 266.701 227.921 263.965 227.921C260.509 227.921 258.037 225.473 256.549 220.577C255.109 215.681 254.389 208.289 254.389 198.401C254.389 189.185 255.373 179.849 257.341 170.393C259.357 160.889 262.093 153.041 265.549 146.849C269.053 140.609 272.893 137.489 277.069 137.489C279.325 137.489 281.077 138.497 282.325 140.513C283.621 142.529 284.269 145.241 284.269 148.649C284.269 159.929 277.525 172.217 264.037 185.513C263.557 190.217 263.317 194.345 263.317 197.897C263.317 202.841 263.485 207.905 263.821 213.089C264.157 218.321 264.709 220.937 265.477 220.937C266.917 220.937 267.637 218.441 267.637 213.449C267.637 209.705 267.373 206.081 266.845 202.577C266.365 199.073 265.693 195.377 264.829 191.489C264.781 190.865 264.973 190.073 265.405 189.113C265.885 188.153 266.461 187.313 267.133 186.593C267.805 185.873 268.405 185.513 268.933 185.513C269.893 185.513 271.045 185.561 272.389 185.657C272.821 185.705 273.325 185.729 273.901 185.729C275.821 185.729 277.957 185.561 280.309 185.225C280.693 185.177 281.101 185.129 281.533 185.081C281.965 185.033 282.397 185.009 282.829 185.009ZM275.557 144.617C274.693 144.617 273.613 146.081 272.317 149.009C271.069 151.937 269.821 155.825 268.573 160.673C267.325 165.473 266.245 170.561 265.333 175.937C269.173 171.569 272.125 167.033 274.189 162.329C276.253 157.577 277.309 153.137 277.357 149.009C277.357 146.081 276.757 144.617 275.557 144.617ZM319.962 205.745C313.578 205.745 308.466 204.545 304.626 202.145C300.786 199.697 298.866 195.977 298.866 190.985C298.866 188.345 299.322 186.329 300.234 184.937C301.146 183.545 302.49 182.849 304.266 182.849C305.562 182.849 306.618 183.185 307.434 183.857C308.25 184.529 308.658 185.393 308.658 186.449C308.658 187.409 308.586 188.249 308.442 188.969C308.442 189.161 308.394 189.497 308.298 189.977C308.25 190.457 308.226 190.961 308.226 191.489C308.226 193.649 309.306 195.257 311.466 196.313C313.674 197.369 316.746 197.897 320.682 197.897C324.762 197.897 327.954 197.177 330.258 195.737C332.562 194.249 333.714 192.185 333.714 189.545C333.714 187.913 333.186 186.521 332.13 185.369C331.074 184.169 329.754 183.185 328.17 182.417C326.586 181.601 324.354 180.617 321.474 179.465C317.778 178.025 314.754 176.657 312.402 175.361C310.098 174.065 308.106 172.313 306.426 170.105C304.794 167.849 303.978 165.065 303.978 161.753C303.978 158.297 304.89 155.225 306.714 152.537C308.586 149.849 311.25 147.761 314.706 146.273C318.21 144.785 322.314 144.041 327.018 144.041C330.522 144.041 333.738 144.569 336.666 145.625C339.594 146.633 341.922 148.193 343.65 150.305C345.426 152.417 346.314 155.009 346.314 158.081C346.314 161.105 345.858 163.385 344.946 164.921C344.034 166.457 342.69 167.225 340.914 167.225C339.666 167.225 338.61 166.841 337.746 166.073C336.93 165.305 336.522 164.393 336.522 163.337C336.522 162.425 336.594 161.585 336.738 160.817C336.882 159.377 336.954 158.465 336.954 158.081C336.954 156.065 335.97 154.529 334.002 153.473C332.034 152.417 329.586 151.889 326.658 151.889C322.53 151.889 319.362 152.657 317.154 154.193C314.994 155.681 313.914 157.793 313.914 160.529C313.914 162.353 314.466 163.913 315.57 165.209C316.722 166.505 318.138 167.585 319.818 168.449C321.498 169.313 323.85 170.345 326.874 171.545C330.522 173.033 333.45 174.377 335.658 175.577C337.866 176.777 339.738 178.409 341.274 180.473C342.858 182.537 343.65 185.081 343.65 188.105C343.65 193.769 341.49 198.137 337.17 201.209C332.898 204.233 327.162 205.745 319.962 205.745ZM389.053 189.113C389.677 189.113 390.157 189.401 390.493 189.977C390.877 190.553 391.069 191.345 391.069 192.353C391.069 194.273 390.613 195.761 389.701 196.817C387.493 199.361 385.213 201.449 382.861 203.081C380.557 204.713 377.917 205.529 374.941 205.529C372.493 205.529 370.645 204.833 369.397 203.441C368.149 202.001 367.525 199.937 367.525 197.249C367.525 195.905 367.861 193.505 368.533 190.049C369.157 187.025 369.469 184.937 369.469 183.785C369.469 183.017 369.205 182.633 368.677 182.633C368.053 182.633 367.165 183.449 366.013 185.081C364.861 186.665 363.709 188.777 362.557 191.417C361.405 194.057 360.469 196.841 359.749 199.769C358.837 203.609 356.581 205.529 352.981 205.529C351.541 205.529 350.581 205.025 350.101 204.017C349.669 202.961 349.453 201.089 349.453 198.401C349.453 196.865 349.477 195.641 349.525 194.729L349.597 188.969C349.597 181.577 350.341 173.873 351.829 165.857C353.365 157.841 355.597 151.121 358.525 145.697C361.501 140.225 365.053 137.489 369.181 137.489C371.389 137.489 373.165 138.449 374.509 140.369C375.901 142.241 376.597 144.689 376.597 147.713C376.597 152.561 375.181 157.601 372.349 162.833C369.517 168.017 364.909 174.089 358.525 181.049C358.381 183.545 358.309 186.113 358.309 188.753C359.893 184.673 361.645 181.361 363.565 178.817C365.533 176.225 367.453 174.377 369.325 173.273C371.245 172.169 372.997 171.617 374.581 171.617C377.701 171.617 379.261 173.177 379.261 176.297C379.261 178.169 378.733 181.553 377.677 186.449C376.765 190.625 376.309 193.385 376.309 194.729C376.309 196.649 377.005 197.609 378.397 197.609C379.357 197.609 380.485 197.033 381.781 195.881C383.125 194.681 384.901 192.761 387.109 190.121C387.685 189.449 388.333 189.113 389.053 189.113ZM367.669 144.617C366.805 144.617 365.845 145.865 364.789 148.361C363.733 150.809 362.701 154.145 361.693 158.369C360.733 162.545 359.941 167.105 359.317 172.049C362.293 168.545 364.741 164.729 366.661 160.601C368.629 156.473 369.613 152.729 369.613 149.369C369.613 147.833 369.445 146.657 369.109 145.841C368.773 145.025 368.293 144.617 367.669 144.617ZM394.089 205.529C391.113 205.529 388.737 204.449 386.961 202.289C385.185 200.129 384.297 197.297 384.297 193.793C384.297 189.953 385.185 186.329 386.961 182.921C388.737 179.465 391.089 176.705 394.017 174.641C396.993 172.529 400.137 171.473 403.449 171.473C404.505 171.473 405.201 171.689 405.537 172.121C405.921 172.505 406.233 173.225 406.473 174.281C407.481 174.089 408.537 173.993 409.641 173.993C411.993 173.993 413.169 174.833 413.169 176.513C413.169 177.521 412.809 179.921 412.089 183.713C410.985 189.233 410.433 193.073 410.433 195.233C410.433 195.953 410.601 196.529 410.937 196.961C411.321 197.393 411.801 197.609 412.377 197.609C413.289 197.609 414.393 197.033 415.689 195.881C416.985 194.681 418.737 192.761 420.945 190.121C421.521 189.449 422.169 189.113 422.889 189.113C423.513 189.113 423.993 189.401 424.329 189.977C424.713 190.553 424.905 191.345 424.905 192.353C424.905 194.273 424.449 195.761 423.537 196.817C421.569 199.265 419.481 201.329 417.273 203.009C415.065 204.689 412.929 205.529 410.865 205.529C409.281 205.529 407.817 205.001 406.473 203.945C405.177 202.841 404.193 201.353 403.521 199.481C401.025 203.513 397.881 205.529 394.089 205.529ZM396.681 198.257C397.737 198.257 398.745 197.633 399.705 196.385C400.665 195.137 401.361 193.481 401.793 191.417L404.457 178.169C402.441 178.217 400.569 178.985 398.841 180.473C397.161 181.913 395.817 183.833 394.809 186.233C393.801 188.633 393.297 191.177 393.297 193.865C393.297 195.353 393.585 196.457 394.161 197.177C394.785 197.897 395.625 198.257 396.681 198.257ZM432.806 205.529C428.102 205.529 424.43 204.209 421.79 201.569C419.198 198.881 417.902 195.353 417.902 190.985C417.902 187.097 418.67 183.689 420.206 180.761C421.742 177.833 423.734 175.577 426.182 173.993C428.63 172.409 431.198 171.617 433.886 171.617C436.526 171.617 438.566 172.409 440.006 173.993C441.494 175.529 442.238 177.521 442.238 179.969C442.238 181.985 441.782 183.689 440.87 185.081C440.006 186.473 438.854 187.169 437.414 187.169C436.502 187.169 435.758 186.953 435.182 186.521C434.654 186.089 434.39 185.489 434.39 184.721C434.39 184.385 434.438 184.001 434.534 183.569C434.63 183.137 434.702 182.825 434.75 182.633C434.99 181.913 435.11 181.241 435.11 180.617C435.11 179.993 434.942 179.513 434.606 179.177C434.318 178.841 433.886 178.673 433.31 178.673C432.206 178.673 431.174 179.177 430.214 180.185C429.254 181.145 428.486 182.465 427.91 184.145C427.334 185.825 427.046 187.673 427.046 189.689C427.046 195.257 429.47 198.041 434.318 198.041C436.286 198.041 438.398 197.393 440.654 196.097C442.958 194.753 445.214 192.761 447.422 190.121C447.998 189.449 448.646 189.113 449.366 189.113C449.99 189.113 450.47 189.401 450.806 189.977C451.19 190.553 451.382 191.345 451.382 192.353C451.382 194.177 450.926 195.665 450.014 196.817C447.758 199.601 445.046 201.761 441.878 203.297C438.758 204.785 435.734 205.529 432.806 205.529ZM476.162 197.681C478.13 198.065 479.114 199.145 479.114 200.921C479.114 202.121 478.562 203.201 477.458 204.161C476.402 205.073 474.866 205.529 472.85 205.529C469.394 205.529 466.562 204.473 464.354 202.361C462.194 200.201 461.114 197.393 461.114 193.937C461.114 192.065 462.074 190.721 463.994 189.905C466.106 188.993 467.618 188.033 468.53 187.025C469.442 185.969 469.898 184.697 469.898 183.209C469.898 182.345 469.706 181.697 469.322 181.265C468.986 180.833 468.554 180.617 468.026 180.617C466.73 180.617 465.29 181.553 463.706 183.425C462.17 185.297 460.73 187.721 459.386 190.697C458.042 193.625 456.986 196.649 456.218 199.769C455.69 202.025 455.066 203.561 454.346 204.377C453.674 205.145 452.594 205.529 451.106 205.529C449.618 205.529 448.514 205.001 447.794 203.945C447.122 202.841 446.666 201.161 446.426 198.905C446.186 196.649 446.066 193.337 446.066 188.969C446.066 181.577 446.81 173.873 448.298 165.857C449.834 157.841 452.066 151.121 454.994 145.697C457.97 140.225 461.522 137.489 465.65 137.489C467.858 137.489 469.634 138.449 470.978 140.369C472.37 142.241 473.066 144.689 473.066 147.713C473.066 152.561 471.65 157.601 468.818 162.833C465.986 168.017 461.378 174.089 454.994 181.049C454.85 183.545 454.778 186.113 454.778 188.753C457.082 182.753 459.722 178.409 462.698 175.721C465.674 172.985 468.458 171.617 471.05 171.617C473.45 171.617 475.37 172.433 476.81 174.065C478.298 175.697 479.042 177.713 479.042 180.113C479.042 182.753 478.37 185.177 477.026 187.385C475.682 189.593 473.378 191.561 470.114 193.289C470.402 194.729 470.978 195.737 471.842 196.313C472.754 196.841 474.194 197.297 476.162 197.681ZM464.138 144.617C463.274 144.617 462.314 145.865 461.258 148.361C460.202 150.809 459.17 154.145 458.162 158.369C457.202 162.545 456.41 167.105 455.786 172.049C458.762 168.545 461.21 164.729 463.13 160.601C465.098 156.473 466.082 152.729 466.082 149.369C466.082 147.833 465.914 146.657 465.578 145.841C465.242 145.025 464.762 144.617 464.138 144.617Z" fill="#F4F4F4"/>
</svg>
